<?xml version="1.0" encoding="UTF-8" standalone="no"?>
<svg xmlns:svg="http://www.w3.org/2000/svg" xmlns="http://www.w3.org/2000/svg" viewBox="0 0 900 102" width="900" height="102" version="1.1">
  <path d="m 0,28 82,-25 82,15 81,-13 82,4 82,2 82,12 82,-16 82,13 81,5 82,-25 82,23 v 80 H 818 736 655 573 491 409 327 245 164 82 0 Z" fill="#a340a3"/>
  <path d="m 0,32 82,9 82,-6 81,-4 82,25 82,-18 82,6 82,-3 82,1 h 81 l 82,-11 82,6 v 66 H 818 736 655 573 491 409 327 245 164 82 0 Z" fill="#952994"/>
  <path d="m 0,59 82,14 82,-13 81,21 82,-8 82,9 82,-4 82,-14 82,-1 81,16 82,7 82,-8 v 25 H 818 736 655 573 491 409 327 245 164 82 0 Z" fill="#860486"/>
</svg>
